<svg width="207" height="46" viewBox="0 0 207 46" fill="none" xmlns="http://www.w3.org/2000/svg">
<path fill-rule="evenodd" clip-rule="evenodd" d="M8.99841 40.5004C12.7591 43.3258 17.4341 45 22.5 45C34.9264 45 45 34.9264 45 22.5C45 17.2827 43.2243 12.4803 40.2443 8.66403C40.1892 8.59343 40.1337 8.52335 40.0777 8.45379C35.9547 3.30037 29.6131 -9.63803e-07 22.5 -9.83506e-07C10.0739 -1.01793e-06 -4.25504e-06 10.0739 -4.7982e-06 22.5C-5.1116e-06 29.6698 3.35319 36.0558 8.57738 40.1759C8.71578 40.2854 8.85613 40.3935 8.99841 40.5004Z" fill="url(#DaVinci-paint0_radial)"/>
<path d="M25.8724 15.9661C25.3194 15.9661 24.7927 15.854 24.3136 15.6514C22.8762 15.0434 22.4473 13.6381 22.4473 11.9793C22.4473 9.76756 23.5025 8.7392 25.7143 8.7392C27.3667 8.7392 28.9434 8.95745 29.5553 10.386C29.7624 10.8696 29.877 11.4021 29.877 11.9614C29.877 14.1731 28.0841 15.9661 25.8724 15.9661Z" fill="#7345F0"/>
<path d="M31.2998 35.4099C30.8334 35.4099 30.3979 35.2781 30.0282 35.05C29.3366 34.6231 29.0451 33.9268 29.0451 33.0544C29.0451 31.7157 29.9389 30.8031 31.2776 30.8031C32.2463 30.8031 33.1045 31.1303 33.4925 31.9517C33.6407 32.2655 33.7236 32.616 33.7236 32.986C33.7236 34.3247 32.6385 35.4099 31.2998 35.4099Z" fill="#7345F0"/>
<path d="M12.7518 37.2014C12.4319 37.2014 12.1265 37.1395 11.8469 37.0269C10.9564 36.6684 10.7841 35.7963 10.7841 34.7775C10.7841 33.4388 11.3909 33.0544 12.7295 33.0544C13.9009 33.0544 14.9003 33.1845 15.1263 34.2891C15.1586 34.4468 15.1755 34.6102 15.1755 34.7775C15.1756 36.1163 14.0905 37.2014 12.7518 37.2014Z" fill="#7345F0"/>
<path d="M36.2529 23.3958C36.2529 24.298 36.9843 25.0293 37.8864 25.0293C38.7886 25.0293 39.5199 24.298 39.5199 23.3958C39.5199 22.4937 38.7886 21.7623 37.8864 21.7623C36.9843 21.7623 36.2529 22.4937 36.2529 23.3958Z" fill="#7345F0"/>
<path d="M22.0258 22.2893C22.0258 23.3078 22.8515 24.1335 23.87 24.1335C24.8886 24.1335 25.7143 23.3078 25.7143 22.2893C25.7143 21.2707 24.8886 20.445 23.87 20.445C22.8515 20.445 22.0258 21.2707 22.0258 22.2893Z" fill="#7345F0"/>
<path d="M16.5457 5.42742C16.5457 6.27137 17.2298 6.95553 18.0738 6.95553C18.9177 6.95553 19.6019 6.27137 19.6019 5.42743C19.6019 4.58348 18.9177 3.89932 18.0738 3.89932C17.2298 3.89932 16.5457 4.58348 16.5457 5.42742Z" fill="#7345F0"/>
<path d="M19.3911 37.6757C19.3911 38.5196 20.0753 39.2038 20.9192 39.2038C21.7632 39.2038 22.4473 38.5196 22.4473 37.6757C22.4473 36.8317 21.7632 36.1476 20.9192 36.1476C20.0753 36.1476 19.3911 36.8317 19.3911 37.6757Z" fill="#7345F0"/>
<path d="M32.9512 12.7518C32.9512 13.1784 33.297 13.5243 33.7236 13.5243C34.1503 13.5243 34.4961 13.1784 34.4961 12.7518C34.4961 12.3251 34.1503 11.9793 33.7236 11.9793C33.297 11.9793 32.9512 12.3251 32.9512 12.7518Z" fill="#7345F0"/>
<path d="M25.6795 40.7846C25.6795 41.2112 26.0253 41.5571 26.452 41.5571C26.8786 41.5571 27.2245 41.2112 27.2245 40.7846C27.2245 40.358 26.8786 40.0121 26.452 40.0121C26.0253 40.0121 25.6795 40.358 25.6795 40.7846Z" fill="#7345F0"/>
<path d="M37.3774 29.8244C37.3774 30.251 37.7233 30.5969 38.1499 30.5969C38.5765 30.5969 38.9224 30.251 38.9224 29.8244C38.9224 29.3978 38.5765 29.0519 38.1499 29.0519C37.7233 29.0519 37.3774 29.3978 37.3774 29.8244Z" fill="#7345F0"/>
<path d="M75.4766 9.79297C77.457 9.79297 79.2793 9.99805 80.9434 10.4082C82.6074 10.8184 84.043 11.3984 85.25 12.1484C86.4688 12.8984 87.5 13.7949 88.3438 14.8379C89.1992 15.8809 89.8379 17.041 90.2598 18.3184C90.6816 19.5957 90.8926 20.9551 90.8926 22.3965C90.8926 23.8379 90.6816 25.1973 90.2598 26.4746C89.8379 27.752 89.1992 28.9121 88.3438 29.9551C87.5 30.998 86.4688 31.8945 85.25 32.6445C84.043 33.3945 82.6074 33.9746 80.9434 34.3848C79.2793 34.7949 77.457 35 75.4766 35H67.5137V9.79297H75.4766ZM74.8965 29.8496C78.084 29.8496 80.5215 29.2227 82.209 27.9688C83.9082 26.7031 84.7578 24.8457 84.7578 22.3965C84.7578 19.9473 83.9082 18.0957 82.209 16.8418C80.5215 15.5762 78.084 14.9434 74.8965 14.9434H73.6484V29.8496H74.8965ZM102.582 16.4199C103.93 16.4199 105.113 16.707 106.133 17.2812C107.152 17.8555 107.873 18.6113 108.295 19.5488V16.8594H114.096V35H108.4V32.293C107.861 33.207 107.082 33.9629 106.062 34.5605C105.055 35.1465 103.895 35.4395 102.582 35.4395C99.9688 35.4395 97.8008 34.5312 96.0781 32.7148C94.3672 30.8984 93.5117 28.6367 93.5117 25.9297C93.5117 23.2227 94.3672 20.9609 96.0781 19.1445C97.8008 17.3281 99.9688 16.4199 102.582 16.4199ZM103.76 30.5352C105.049 30.5352 106.109 30.1074 106.941 29.252C107.773 28.3848 108.189 27.2773 108.189 25.9297C108.189 24.582 107.773 23.4805 106.941 22.625C106.109 21.7578 105.049 21.3242 103.76 21.3242C102.494 21.3242 101.451 21.7637 100.631 22.6426C99.8105 23.5098 99.4004 24.6055 99.4004 25.9297C99.4004 27.2539 99.8105 28.3555 100.631 29.2344C101.451 30.1016 102.494 30.5352 103.76 30.5352ZM131.129 35H126.734L116.434 9.79297H123.025L128.932 25.7891L134.838 9.79297H141.43L131.129 35ZM143.943 35V16.8594H149.85V35H143.943ZM150.289 11.4629C150.289 12.4121 149.961 13.209 149.305 13.8535C148.66 14.4863 147.857 14.8027 146.896 14.8027C145.959 14.8027 145.162 14.4863 144.506 13.8535C143.85 13.209 143.521 12.4121 143.521 11.4629C143.521 10.5371 143.85 9.75195 144.506 9.10742C145.162 8.46289 145.959 8.14062 146.896 8.14062C147.857 8.14062 148.66 8.46289 149.305 9.10742C149.961 9.74023 150.289 10.5254 150.289 11.4629ZM160.256 35H154.35V16.8594H160.08V19.5488C160.514 18.6465 161.223 17.9023 162.207 17.3164C163.203 16.7188 164.316 16.4199 165.547 16.4199C167.656 16.4199 169.268 17.082 170.381 18.4062C171.494 19.7305 172.051 21.5059 172.051 23.7324V35H166.162V24.6992C166.162 23.7266 165.922 22.959 165.441 22.3965C164.973 21.8223 164.252 21.5352 163.279 21.5352C162.354 21.5352 161.615 21.8105 161.064 22.3613C160.525 22.9004 160.256 23.668 160.256 24.6641V35ZM185.182 16.4199C187.725 16.4199 189.869 17.1406 191.615 18.582C193.373 20.0117 194.457 21.7637 194.867 23.8379H189.137C188.457 22.1621 187.127 21.3242 185.146 21.3242C183.822 21.3242 182.791 21.7637 182.053 22.6426C181.326 23.5098 180.963 24.6055 180.963 25.9297C180.963 27.2539 181.326 28.3555 182.053 29.2344C182.791 30.1016 183.822 30.5352 185.146 30.5352C187.127 30.5352 188.457 29.6973 189.137 28.0215H194.867C194.457 30.0957 193.373 31.8535 191.615 33.2949C189.869 34.7246 187.725 35.4395 185.182 35.4395C182.146 35.4395 179.709 34.5488 177.869 32.7676C176.041 30.9863 175.127 28.707 175.127 25.9297C175.127 23.1523 176.041 20.873 177.869 19.0918C179.709 17.3105 182.146 16.4199 185.182 16.4199ZM198.365 35V16.8594H204.271V35H198.365ZM204.711 11.4629C204.711 12.4121 204.383 13.209 203.727 13.8535C203.082 14.4863 202.279 14.8027 201.318 14.8027C200.381 14.8027 199.584 14.4863 198.928 13.8535C198.271 13.209 197.943 12.4121 197.943 11.4629C197.943 10.5371 198.271 9.75195 198.928 9.10742C199.584 8.46289 200.381 8.14062 201.318 8.14062C202.279 8.14062 203.082 8.46289 203.727 9.10742C204.383 9.74023 204.711 10.5254 204.711 11.4629Z" fill="url(#DaVinci-paint1_linear)"/>
<defs>
<radialGradient id="DaVinci-paint0_radial" cx="0" cy="0" r="1" gradientUnits="userSpaceOnUse" gradientTransform="translate(19.1803 30.1932) rotate(-19.1152) scale(25.263)">
<stop stop-color="#B19CF8"/>
<stop offset="1" stop-color="#8563F5"/>
</radialGradient>
<linearGradient id="DaVinci-paint1_linear" x1="65" y1="24.5" x2="207" y2="24.5" gradientUnits="userSpaceOnUse">
<stop stop-color="#B19CF8"/>
<stop offset="1" stop-color="#8563F5"/>
</linearGradient>
</defs>
</svg>
