<svg width="26" height="26" viewBox="0 0 26 26" fill="none" xmlns="http://www.w3.org/2000/svg">
<path d="M13.0001 0.0541143C5.82041 0.0541143 0 5.87452 0 13.0542C0 19.4935 4.68678 24.8264 10.8319 25.859V15.7664H7.69593V12.1344H10.8319V9.45637C10.8319 6.34906 12.7298 4.65576 15.5021 4.65576C16.8299 4.65576 17.971 4.7547 18.3022 4.79828V8.04624L16.3794 8.04717C14.872 8.04717 14.5814 8.76332 14.5814 9.8146V12.1326H18.1782L17.709 15.7645H14.5814V25.9459C21.0135 25.163 26 19.6943 26 13.0505C26 5.87452 20.1796 0.0541143 13.0001 0.0541143Z" fill="url(#Facebook-paint0_linear)"/>
<defs>
<linearGradient id="Facebook-paint0_linear" x1="-9.68575e-08" y1="13" x2="26" y2="13" gradientUnits="userSpaceOnUse">
<stop stop-color="#7445F0"/>
<stop offset="1" stop-color="#4338E3"/>
</linearGradient>
</defs>
</svg>
