<svg width="26" height="26" viewBox="0 0 26 26" fill="none" xmlns="http://www.w3.org/2000/svg">
<g clip-path="url(#Link-clip0)">
<path d="M15.8639 10.1342C15.5559 9.82437 15.2144 9.54974 14.8457 9.31533C13.8693 8.69007 12.7341 8.35781 11.5746 8.35781C9.96533 8.35482 8.4214 8.99424 7.28542 10.1342L1.77441 15.6495C0.640363 16.7858 0.00296982 18.3252 0.00195438 19.9305C-0.000178049 23.2805 2.71369 25.9979 6.06364 26C7.67048 26.0056 9.21298 25.3692 10.3486 24.2323L14.8977 19.6831C14.9804 19.6012 15.0265 19.4894 15.0259 19.373C15.0245 19.1337 14.8294 18.9409 14.5901 18.9423H14.4168C13.4664 18.9456 12.5244 18.7631 11.644 18.405C11.4818 18.3383 11.2954 18.3759 11.1718 18.5003L7.90068 21.7757C6.88493 22.7915 5.23808 22.7915 4.22234 21.7757C3.20659 20.76 3.20659 19.1132 4.22234 18.0974L9.75503 12.5691C10.77 11.5554 12.4141 11.5554 13.4291 12.5691C14.1131 13.2128 15.18 13.2128 15.8639 12.5691C16.1582 12.2745 16.3366 11.8839 16.3665 11.4686C16.3982 10.9723 16.2151 10.4862 15.8639 10.1342Z" fill="url(#Link-paint0_linear)"/>
<path d="M24.2216 1.77667C21.8527 -0.592203 18.012 -0.592203 15.6431 1.77667L11.0983 6.31717C10.9735 6.44258 10.9375 6.6312 11.0073 6.79377C11.0763 6.9568 11.2375 7.06144 11.4145 7.05804H11.5748C12.5241 7.05631 13.4646 7.24026 14.3433 7.59962C14.5055 7.66639 14.692 7.62872 14.8155 7.50433L18.078 4.24623C19.0937 3.23048 20.7405 3.23048 21.7563 4.24623C22.772 5.26197 22.772 6.90882 21.7563 7.92457L17.6923 11.9842L17.6577 12.0231L16.2366 13.4356C15.2217 14.4492 13.5775 14.4492 12.5626 13.4356C11.8786 12.7918 10.8117 12.7918 10.1277 13.4356C9.83155 13.7323 9.65298 14.1264 9.62511 14.5447C9.59343 15.041 9.77646 15.527 10.1277 15.8791C10.6292 16.3827 11.2159 16.7934 11.8607 17.0922C11.9517 17.1355 12.0427 17.1702 12.1337 17.2092C12.2246 17.2482 12.3199 17.2785 12.4109 17.3132C12.5019 17.3479 12.5972 17.3782 12.6882 17.4042L12.9438 17.4735C13.1171 17.5168 13.2904 17.5515 13.468 17.5818C13.682 17.6136 13.8975 17.6338 14.1136 17.6425H14.4169H14.4429L14.7028 17.6121C14.7981 17.6078 14.8978 17.5861 15.0105 17.5861H15.1577L15.4567 17.5428L15.5954 17.5168L15.8466 17.4649H15.8943C16.9585 17.1975 17.9303 16.6465 18.7061 15.8705L24.2214 10.3551C26.5905 7.98625 26.5905 4.14555 24.2216 1.77667Z" fill="url(#Link-paint1_linear)"/>
</g>
<defs>
<linearGradient id="Link-paint0_linear" x1="0.00195304" y1="16.2504" x2="16.37" y2="16.2504" gradientUnits="userSpaceOnUse">
<stop stop-color="#E96FCF"/>
<stop offset="1" stop-color="#BA67C8"/>
</linearGradient>
<linearGradient id="Link-paint1_linear" x1="9.62158" y1="7.89269" x2="25.9982" y2="7.89269" gradientUnits="userSpaceOnUse">
<stop stop-color="#E96FCF"/>
<stop offset="1" stop-color="#BA67C8"/>
</linearGradient>
<clipPath id="Link-clip0">
<rect width="26" height="26" fill="white"/>
</clipPath>
</defs>
</svg>
