<svg width="26" height="26" viewBox="0 0 26 26" fill="none" xmlns="http://www.w3.org/2000/svg">
<g clip-path="url(#Telegram-clip0)">
<path d="M0.459237 12.5359L6.45016 14.7719L8.76901 22.2293C8.91738 22.707 9.50143 22.8835 9.88909 22.5666L13.2285 19.8442C13.5786 19.559 14.0772 19.5447 14.443 19.8103L20.4661 24.1832C20.8808 24.4847 21.4684 24.2574 21.5724 23.7563L25.9846 2.53243C26.0982 1.98505 25.5603 1.5284 25.0391 1.72999L0.452217 11.2149C-0.154537 11.4489 -0.14925 12.3079 0.459237 12.5359ZM8.3953 13.5816L20.1038 6.37038C20.3142 6.24116 20.5307 6.52568 20.35 6.6933L10.6871 15.6754C10.3475 15.9916 10.1284 16.4147 10.0663 16.8739L9.73716 19.3133C9.69357 19.639 9.23606 19.6713 9.14618 19.3561L7.88024 14.9079C7.73525 14.4006 7.94654 13.8586 8.3953 13.5816Z" fill="url(#Telegram-paint0_linear)"/>
</g>
<defs>
<linearGradient id="Telegram-paint0_linear" x1="-9.68574e-08" y1="13.0001" x2="26" y2="13.0001" gradientUnits="userSpaceOnUse">
<stop stop-color="#63C58F"/>
<stop offset="1" stop-color="#65C9C9"/>
</linearGradient>
<clipPath id="Telegram-clip0">
<rect width="26" height="26" fill="white"/>
</clipPath>
</defs>
</svg>
